<svg width="109" height="12" viewBox="0 0 109 12" fill="none" xmlns="http://www.w3.org/2000/svg">
<path d="M0.200831 2.88404C-0.135974 3.83471 0.0526495 8.12966 0.0526495 8.12966L97.5084 8.12966L97.5084 2.52912C97.5084 2.52912 0.621838 2.27906 0.200831 2.88404Z" fill="#8A8A8A"/>
<path d="M68.3589 4.49264C68.3589 4.37418 68.3881 4.25687 68.4509 4.14832C68.7181 3.69222 69.3828 3.64659 69.9351 3.65765C73.265 3.72564 76.5949 3.7934 79.9248 3.86139C83.066 3.92523 86.2365 3.98699 89.3172 3.40345C90.0761 3.25964 91.3605 3.30734 91.3605 4.23267C91.3605 4.30504 91.3515 4.3827 91.3357 4.46613C91.1067 5.61524 89.49 5.53389 88.5919 5.43617C82.617 4.78671 76.5814 5.31494 70.5751 5.6081C70.0384 5.63414 69.4703 5.65281 68.9921 5.41635C68.6328 5.23774 68.3589 4.85908 68.3589 4.49264Z" fill="#D8D8D8"/>
<path d="M54.6936 4.49286C54.6936 4.3744 54.7071 4.25709 54.7385 4.14831C54.8732 3.69222 55.2033 3.64658 55.4772 3.65765C57.1321 3.72563 58.7869 3.79339 60.444 3.86138C62.0045 3.92522 63.5808 3.98699 65.1121 3.40344C65.4893 3.25963 66.127 3.30734 66.127 4.2329C66.127 4.30503 66.1225 4.38293 66.1158 4.46613C66.0013 5.61524 65.1974 5.53388 64.7506 5.43616C61.7822 4.78671 58.7802 5.31494 55.7961 5.60809C55.5289 5.63413 55.246 5.6528 55.008 5.41634C54.8283 5.23773 54.6936 4.85908 54.6936 4.49286Z" fill="#D8D8D8"/>
<path d="M0.200915 8.93374C0.0804998 8.58803 0.0527344 8.12964 0.0527344 8.12964L97.5085 8.12964L97.5085 9.09161C97.5085 9.09161 0.874526 9.45229 0.200915 8.93374Z" fill="#5A5A5A"/>
<path d="M97.2838 1.66253C98.8017 1.19629 100.261 0.521255 101.813 0.188691C103.364 -0.143643 105.082 -0.0938649 106.405 0.802653C107.404 1.47908 108.075 2.57172 108.493 3.72152C109.178 5.5943 109.227 7.78236 108.282 9.53045C108.001 10.0499 107.633 10.5275 107.159 10.8713C106.703 11.2032 106.169 11.3998 105.63 11.5535C103.454 12.1753 101.105 12.1469 98.9454 11.4728C96.5676 10.7314 94.3671 9.22186 91.8837 9.15249C91.8972 8.78397 92.2811 8.55488 92.6314 8.46546C92.9794 8.37604 93.3724 8.33663 93.6194 8.06906C93.9427 7.71875 93.8619 7.16309 93.9495 6.6881C94.0752 5.9884 94.5871 5.43735 94.897 4.80126C95.2091 4.1654 95.2383 3.23639 94.6298 2.89276C94.2279 2.66575 93.7361 2.80035 93.2826 2.87018C92.7504 2.95245 92.1621 2.95776 91.6479 2.78698C91.8433 2.14398 93.5296 2.38481 94.1111 2.32005C95.1844 2.19998 96.2487 1.98034 97.2838 1.66253Z" fill="#5B5B5B"/>
<path d="M100.874 3.56137C100.874 3.25116 101.005 2.93404 101.209 2.69896C101.505 2.36087 101.923 2.16566 102.345 2.02784C103.317 1.70957 104.406 1.66002 105.336 2.09214C106.256 2.51989 106.793 3.40466 107.089 4.36524C107.141 4.53556 107.17 4.74759 107.17 4.97022C107.17 5.62498 106.917 6.37284 106.241 6.43184C105.668 6.48162 105.313 5.84162 104.889 5.44475C104.341 4.93311 103.56 4.78999 102.821 4.74252C102.466 4.71993 102.107 4.71325 101.768 4.60977C101.427 4.50675 101.099 4.28942 100.953 3.95731C100.899 3.83171 100.874 3.69712 100.874 3.56137Z" fill="#9F9F9F"/>
<path d="M91.886 9.15251C94.3694 9.22189 96.5698 10.7314 98.9477 11.4729C101.11 12.147 103.456 12.1753 105.632 11.5535C106.171 11.3998 106.705 11.2032 107.161 10.8713C107.635 10.5275 108.003 10.0497 108.284 9.53048C108.34 9.42815 108.392 9.32399 108.439 9.21866C108.232 9.35441 108.032 9.53048 107.857 9.6849C106.281 11.0762 103.908 10.8317 101.898 10.2869C100.69 9.95984 99.4821 9.54085 98.4851 8.7704C97.4882 8.00018 96.7225 6.82364 96.6978 5.5434C96.6821 4.75727 96.8258 3.73653 96.132 3.40143C95.9411 3.30901 95.7211 3.2998 95.51 3.31155C95.3439 3.321 95.1844 3.34958 95.0295 3.38553C95.1867 3.81189 95.1103 4.3717 94.9015 4.80129C94.5894 5.43715 94.0775 5.98843 93.9517 6.68813C93.8642 7.16312 93.945 7.71901 93.6217 8.06932C93.3747 8.33666 92.9817 8.37607 92.6337 8.46549C92.2834 8.55491 91.8995 8.784 91.886 9.15251Z" fill="#2F2F2F"/>
</svg>
