<svg width="109" height="12" viewBox="0 0 109 12" fill="none" xmlns="http://www.w3.org/2000/svg">
<path d="M0.200831 2.88399C-0.135974 3.83467 0.0526495 8.12961 0.0526495 8.12961L97.5084 8.12962L97.5084 2.52908C97.5084 2.52908 0.621838 2.27902 0.200831 2.88399Z" fill="#FFD169"/>
<path d="M68.359 4.49266C68.359 4.3742 68.3882 4.25689 68.451 4.14834C68.7182 3.69224 69.3829 3.64661 69.9352 3.65767C73.2651 3.72566 76.595 3.79342 79.9249 3.86141C83.0661 3.92525 86.2366 3.98701 89.3173 3.40347C90.0762 3.25966 91.3605 3.30737 91.3605 4.23269C91.3605 4.30506 91.3515 4.38273 91.3358 4.46616C91.1068 5.61527 89.4901 5.53391 88.592 5.43619C82.6171 4.78673 76.5815 5.31496 70.5752 5.60812C70.0385 5.63416 69.4704 5.65283 68.9922 5.41637C68.6329 5.23776 68.359 4.8591 68.359 4.49266Z" fill="#FFE5AA"/>
<path d="M54.6937 4.4929C54.6937 4.37444 54.7072 4.25713 54.7386 4.14835C54.8733 3.69226 55.2034 3.64662 55.4773 3.65768C57.1321 3.72567 58.787 3.79343 60.4441 3.86142C62.0046 3.92526 63.5809 3.98702 65.1122 3.40348C65.4894 3.25967 66.1271 3.30738 66.1271 4.23293C66.1271 4.30507 66.1226 4.38297 66.1159 4.46617C66.0013 5.61528 65.1975 5.53392 64.7507 5.4362C61.7823 4.78675 58.7803 5.31498 55.7962 5.60813C55.529 5.63417 55.246 5.65284 55.008 5.41638C54.8284 5.23777 54.6937 4.85911 54.6937 4.4929Z" fill="#FFE5AA"/>
<path d="M0.200823 8.93377C0.0804082 8.58806 0.0526428 8.12967 0.0526428 8.12967L97.5084 8.12967L97.5084 9.09164C97.5084 9.09164 0.874435 9.45232 0.200823 8.93377Z" fill="#D3AA50"/>
<path d="M97.2838 1.66253C98.8017 1.19629 100.261 0.521255 101.813 0.188691C103.364 -0.143643 105.082 -0.0938649 106.405 0.802653C107.404 1.47908 108.075 2.57172 108.493 3.72152C109.178 5.5943 109.227 7.78236 108.282 9.53045C108.001 10.0499 107.633 10.5275 107.159 10.8713C106.703 11.2032 106.169 11.3998 105.63 11.5535C103.454 12.1753 101.105 12.1469 98.9454 11.4728C96.5676 10.7314 94.3671 9.22186 91.8837 9.15249C91.8972 8.78397 92.2812 8.55488 92.6314 8.46546C92.9795 8.37604 93.3724 8.33663 93.6194 8.06906C93.9427 7.71875 93.8619 7.16309 93.9495 6.6881C94.0752 5.9884 94.5872 5.43735 94.897 4.80126C95.2091 4.1654 95.2383 3.23639 94.6298 2.89276C94.2279 2.66575 93.7362 2.80035 93.2826 2.87018C92.7504 2.95245 92.1622 2.95776 91.648 2.78698C91.8433 2.14398 93.5296 2.38481 94.1111 2.32005C95.1844 2.19998 96.2487 1.98034 97.2838 1.66253Z" fill="#A41212"/>
<path d="M100.874 3.56134C100.874 3.25113 101.004 2.93401 101.209 2.69893C101.505 2.36084 101.923 2.16563 102.345 2.02781C103.317 1.70954 104.406 1.65999 105.336 2.09211C106.256 2.51986 106.793 3.40462 107.089 4.36521C107.141 4.53553 107.17 4.74756 107.17 4.97019C107.17 5.62495 106.916 6.37281 106.241 6.43181C105.668 6.48159 105.313 5.84159 104.889 5.44472C104.341 4.93308 103.56 4.78996 102.821 4.74249C102.466 4.7199 102.107 4.71322 101.768 4.60974C101.427 4.50672 101.099 4.28939 100.953 3.95728C100.899 3.83168 100.874 3.69709 100.874 3.56134Z" fill="#CB7878"/>
<path d="M91.886 9.15249C94.3693 9.22186 96.5698 10.7314 98.9477 11.4728C101.11 12.147 103.456 12.1753 105.632 11.5535C106.171 11.3998 106.705 11.2032 107.161 10.8713C107.635 10.5275 108.003 10.0497 108.284 9.53046C108.34 9.42813 108.392 9.32396 108.439 9.21864C108.232 9.35439 108.032 9.53046 107.857 9.68488C106.281 11.0762 103.908 10.8317 101.898 10.2869C100.69 9.95982 99.4821 9.54083 98.4851 8.77038C97.4882 8.00015 96.7225 6.82362 96.6978 5.54337C96.6821 4.75725 96.8258 3.73651 96.132 3.40141C95.9411 3.30899 95.7211 3.29977 95.51 3.31153C95.3438 3.32098 95.1844 3.34955 95.0295 3.38551C95.1867 3.81187 95.1103 4.37168 94.9015 4.80127C94.5894 5.43713 94.0775 5.98841 93.9517 6.68811C93.8641 7.1631 93.945 7.71898 93.6216 8.0693C93.3746 8.33664 92.9817 8.37605 92.6337 8.46547C92.2834 8.55489 91.8994 8.78397 91.886 9.15249Z" fill="#7A0E0E"/>
</svg>
